<svg width="120" height="120" viewBox="0 0 120 120" fill="none" xmlns="http://www.w3.org/2000/svg">
<path d="M13.4 13.4H105.7C109.9 13.4 113.4 16.8 113.4 21.1V82.7C113.4 86.9 110 90.4 105.7 90.4H13.4C9.2 90.4 5.7 87 5.7 82.7V21.1C5.7 16.8 9.1 13.4 13.4 13.4Z" stroke="#2699FB" stroke-width="7.694" stroke-linejoin="round"/>
<path d="M71.1 105.7L69.1 90.3H49.9L48 105.7H71.1Z" fill="#2699FB" stroke="#2699FB" stroke-width="7.694" stroke-linecap="round" stroke-linejoin="round"/>
<path d="M86.5 105.7H32.6" stroke="#2699FB" stroke-width="7.694" stroke-linecap="round" stroke-linejoin="round"/>
<path d="M5.7 71.1V82.6C5.7 86.8 9.1 90.3 13.4 90.3H105.7C109.9 90.3 113.4 86.9 113.4 82.6V71.1H5.7ZM59.5 86.5C57.4 86.5 55.7 84.8 55.7 82.7C55.7 80.6 57.4 78.9 59.5 78.9C61.6 78.9 63.3 80.6 63.3 82.7C63.3 84.8 61.7 86.5 59.5 86.5Z" fill="#2699FB"/>
<path d="M64.2 31.6C62.6 29.9 60.4 29 58 29C55.6 29 53.4 29.9 51.8 31.6C50.2 33.3 49.5 35.6 49.6 38.1C50 43 53.8 47 58 47C62.2 47 66 43 66.3 38.1C66.5 35.6 65.7 33.3 64.2 31.6Z" fill="#2699FB"/>
<path d="M72.1 65H43.9C43.2 65 42.4 64.7 42 64.1C41.5 63.5 41.3 62.6 41.4 61.8C42.1 58 44.2 54.9 47.5 52.7C50.5 50.7 54.2 49.6 58 49.6C61.8 49.6 65.6 50.7 68.5 52.7C71.8 54.9 73.9 58.1 74.6 61.8C74.8 62.7 74.5 63.5 74 64.1C73.6 64.7 72.9 65 72.1 65Z" fill="#2699FB"/>
</svg>
