<svg width="120" height="120" viewBox="0 0 120 120" fill="none" xmlns="http://www.w3.org/2000/svg">
<path d="M117.3 25.5C117.3 16.7 114.1 13.4 105.3 13.4C75 13.4 44.7 13.4 14.3 13.4C13 13.4 11.8 13.3 10.5 13.4C5.3 13.8 1.7 17.4 1.7 22.6C1.6 43.6 1.6 64.6 1.7 85.5C1.7 89.6 4.4 93.6 8.2 94.2C12.2 94.9 16.3 94.7 20.7 94.9C20.7 91 20.6 87.8 20.7 84.6C20.8 81.9 20.3 79.6 18.6 77.2C13.8 70.2 15.5 60.8 22 55.5C28.9 49.9 38.2 50.2 44.6 56.3C50.6 62 51.5 71.3 46.7 78C46.1 78.9 45.2 79.9 45.2 81C45 85.5 45.1 89.9 45.1 94.8C66.3 94.8 86.9 94.9 107.6 94.7C113.9 94.6 117.2 90.6 117.2 84.1C117.3 64.7 117.3 45.1 117.3 25.5ZM101.1 77.5C100.4 78.2 99.3 78.7 98.2 78.7H80.2C78 78.7 76.1 76.9 76.1 74.6C76.1 73.5 76.6 72.5 77.3 71.7C78 71 79 70.5 80.2 70.5H98.2C100.4 70.5 102.3 72.3 102.3 74.6C102.3 75.8 101.8 76.8 101.1 77.5ZM101.1 58.8C100.4 59.5 99.3 60 98.2 60H67.2C65 60 63.1 58.2 63.1 55.9C63.1 54.8 63.6 53.8 64.3 53C65 52.3 66.1 51.8 67.2 51.8H98.2C100.4 51.8 102.3 53.6 102.3 55.9C102.3 57 101.8 58 101.1 58.8ZM101.1 38.1C100.4 38.8 99.3 39.3 98.2 39.3H19.8C17.6 39.3 15.7 37.5 15.7 35.2C15.7 34.1 16.2 33.1 16.9 32.3C17.6 31.6 18.7 31.1 19.8 31.1H98.2C100.4 31.1 102.3 32.9 102.3 35.2C102.3 36.4 101.8 37.4 101.1 38.1Z" fill="#2699FB"/>
<path d="M44.8 68.6C44.8 75.2 39.5 80.5 33 80.5C26.4 80.5 21 75 21.1 68.3C21.2 61.8 26.7 56.5 33.1 56.6C39.6 56.7 44.8 62.1 44.8 68.6Z" fill="#2699FB"/>
<path d="M39.1 106.5C37.3 104.3 35.6 102.1 33.2 99.2C30.6 102.3 28.8 104.6 26.9 106.9C26.6 106.7 26.4 106.5 26.1 106.3C26.1 99 26.1 91.8 26.1 85C30.6 85 35.1 85 39.7 85C39.7 91.7 39.7 98.9 39.7 106.1C39.5 106.3 39.3 106.4 39.1 106.5Z" fill="#2699FB"/>
</svg>
