<svg width="120" height="120" viewBox="0 0 120 120" fill="none" xmlns="http://www.w3.org/2000/svg">
<path d="M115.3 80.3C115.3 76.1 112.6 72.5 108.8 71.2V37.6L115.3 34.9L60 12.7L4.8 34.9L60 57.1L102.3 40.2V71.2C98.5 72.5 95.8 76.1 95.8 80.3C95.8 84.2 98.1 87.5 101.3 89L95.9 105.1L102 107.1L105.4 96.9L108.8 107.1L114.9 105.1L109.8 89C113 87.4 115.3 84.1 115.3 80.3Z" fill="#2699FB"/>
<path d="M60 64.1L30.9 52.4V60.9C30.9 70.1 43.4 77 60 77C76.6 77 89.2 70 89.2 60.8V52.3L60 64.1Z" fill="#2699FB"/>
</svg>
