<svg width="120" height="120" viewBox="0 0 120 120" fill="none" xmlns="http://www.w3.org/2000/svg">
<path d="M56.4 2.1C31.3 3.7 12.5 25.6 12.5 50.7V85.7C12.5 94.6 19.8 101.4 28.2 101.4H33.4C39.1 101.4 43.8 96.7 43.8 91V70C43.8 64.3 39.1 59.6 33.4 59.6H23V51.2C23 30.8 38.7 13.1 58.5 12.6C78.9 12.1 96.1 28.8 96.1 49.2V59.6H85.7C80 59.6 75.3 64.3 75.3 70V90.9C75.3 96.6 80 101.3 85.7 101.3H96.1V106.5H64.8C61.7 106.5 59.6 108.6 59.6 111.7C59.6 114.8 61.7 116.9 64.8 116.9H90.9C99.8 116.9 106.6 109.6 106.6 101.2V49.1C106.6 22 84.1 0.600001 56.4 2.1Z" fill="#2699FB"/>
</svg>
