<svg width="120" height="120" viewBox="0 0 120 120" fill="none" xmlns="http://www.w3.org/2000/svg">
<path d="M88.2 2.3H30.9C21.9 2.3 14.5 9.6 14.5 18.7V100.5C14.5 109.5 21.8 116.9 30.9 116.9H88.2C97.2 116.9 104.6 109.6 104.6 100.5V18.6C104.5 9.6 97.2 2.3 88.2 2.3ZM59.5 71.8H39.1C36.8 71.8 35 70 35 67.7C35 65.4 36.8 63.6 39.1 63.6H59.6C61.9 63.6 63.7 65.4 63.7 67.7C63.7 70 61.8 71.8 59.5 71.8ZM80 51.4H39.1C36.8 51.4 35 49.6 35 47.3C35 45 36.8 43.2 39.1 43.2H80C82.3 43.2 84.1 45 84.1 47.3C84.1 49.5 82.3 51.4 80 51.4ZM80 30.9H39.1C36.8 30.9 35 29.1 35 26.8C35 24.5 36.8 22.7 39.1 22.7H80C82.3 22.7 84.1 24.5 84.1 26.8C84.1 29.1 82.3 30.9 80 30.9Z" fill="#2699FB"/>
</svg>
