<svg width="120" height="120" viewBox="0 0 120 120" fill="none" xmlns="http://www.w3.org/2000/svg">
<path d="M109.2 90.2C108.1 90.2 107.1 90 106.1 89.5C105.9 89.4 105.7 89.3 105.5 89.1L85.7 75.3C83.7 73.9 82.5 71.5 82.5 69.1V50.1C82.5 47.6 83.7 45.3 85.7 43.9L105.4 30C105.6 29.9 105.8 29.7 106 29.6C109.9 27.9 114.4 29.6 116.1 33.5C116.5 34.5 116.8 35.5 116.8 36.6V82.6C116.8 86.8 113.4 90.2 109.2 90.2Z" fill="#2699FB"/>
<path d="M62.4 93.9H18.5C9.5 93.9 2.3 86.6 2.3 77.7V41.4C2.3 32.4 9.6 25.2 18.5 25.2H62.5C71.4 25.2 78.6 32.4 78.6 41.3V77.7C78.6 86.6 71.4 93.9 62.4 93.9Z" fill="#2699FB"/>
</svg>
